HIERARCHY
ROOT Hips
{
  OFFSET 1.44925e-005 102.336 -0.101585
  CHANNELS 6 Xposition Yposition Zposition Zrotation Xrotation Yrotation
  JOINT LeftUpLeg
  {
    OFFSET 8.9458 -8.66707 0.101652
    CHANNELS 3 Zrotation Xrotation Yrotation
    JOINT LeftLeg
    {
      OFFSET 0 -44.4227 1.3727
      CHANNELS 3 Zrotation Xrotation Yrotation
      JOINT LeftFoot
      {
        OFFSET -0.253549 -42.0924 -1.46059
        CHANNELS 3 Zrotation Xrotation Yrotation
        JOINT LeftToes
        {
          OFFSET -0.04 -4.41509 8.4991
          CHANNELS 3 Zrotation Xrotation Yrotation
          End Site
          {
            OFFSET 0.08 -0.047448 9.77979
          }
        }
      }
    }
  }
  JOINT Spine
  {
    OFFSET 0 11.8905 0
    CHANNELS 3 Zrotation Xrotation Yrotation
    JOINT Spine1
    {
      OFFSET 0 25.6574 0.127663
      CHANNELS 3 Zrotation Xrotation Yrotation
      JOINT RightShoulder
      {
        OFFSET -8.99 -0.362252 -0.22
        CHANNELS 3 Zrotation Xrotation Yrotation
        JOINT RightArm
        {
          OFFSET -10.2827 -0.00338 0.322123
          CHANNELS 3 Zrotation Xrotation Yrotation
          JOINT RightForeArm
          {
            OFFSET -26.364 0.099144 -1.42434
            CHANNELS 3 Zrotation Xrotation Yrotation
            JOINT RightHand
            {
              OFFSET -22.0324 0.085362 1.02216
              CHANNELS 3 Zrotation Xrotation Yrotation
              End Site
              {
                OFFSET -13.3284 -0.6 1.50291
              }
            }
          }
        }
      }
      JOINT LeftShoulder1
      {
        OFFSET 8.99 -0.362252 -0.22
        CHANNELS 3 Zrotation Xrotation Yrotation
        JOINT LeftArm
        {
          OFFSET 10.2827 -0.00337999 0.322123
          CHANNELS 3 Zrotation Xrotation Yrotation
          JOINT LeftForeArm
          {
            OFFSET 26.2597 0.099144 -1.42434
            CHANNELS 3 Zrotation Xrotation Yrotation
            JOINT LeftHand
            {
              OFFSET 22.0902 0.085362 1.02216
              CHANNELS 3 Zrotation Xrotation Yrotation
              End Site
              {
                OFFSET 13.419 -0.6 1.50291
              }
            }
          }
        }
      }
      JOINT Head
      {
        OFFSET 0 8.73416 0.011341
        CHANNELS 3 Zrotation Xrotation Yrotation
        End Site
        {
          OFFSET -0.29 12.7742 2.51395
        }
      }
    }
  }
  JOINT RightUpLeg
  {
    OFFSET -8.9458 -8.66707 0.101652
    CHANNELS 3 Zrotation Xrotation Yrotation
    JOINT RightLeg
    {
      OFFSET 0 -44.4227 1.3727
      CHANNELS 3 Zrotation Xrotation Yrotation
      JOINT RightFoot
      {
        OFFSET 0.253549 -42.0924 -1.46059
        CHANNELS 3 Zrotation Xrotation Yrotation
        JOINT RightToes
        {
          OFFSET 0.04 -4.41509 8.4991
          CHANNELS 3 Zrotation Xrotation Yrotation
          End Site
          {
            OFFSET -0.08 -0.137448 9.77979
          }
        }
      }
    }
  }
}
MOTION
Frames:	7
Frame Time:	0.0333333
12.833 102.063 -2.39692 -3.74369 -0.388561 -93.4271 2.02619 -1.0655 3.37922 0.389712 11.6335 18.1177 -5.24924 -9.8575 -0.0647937 -1.30296e-009 8.75239e-006 -1.47603e-008 0.537683 7.59848 0.0766707 -0.80745 -1.05705 0.318921 38.2167 1.83386 0.127815 41.5132 -20.5976 10.7044 10.1288 37.0154 5.24371 -7.45037 9.73994 -2.82981 -44.4675 3.60463 -3.54706 -27.0336 -9.61864 1.70861 -3.99707 33.0759 -15.9756 5.82328 9.61819 -0.917488 0.811248 -8.88238 -2.19169 -2.67215 0.750616 -5.0135 -0.244506 11.5952 -11.2272 5.30926 -12.5097 0.0220754 0.0462048 0.000530889 0.662642 
12.819 102.063 -2.40677 -3.79834 -0.364141 -93.3498 2.05741 -1.0028 3.3962 0.403712 11.6335 17.9976 -5.25454 -9.8575 -0.0647937 -1.30296e-009 8.75239e-006 -1.47603e-008 0.520663 7.59054 0.045227 -0.752141 -0.999353 0.276038 38.1858 1.83386 0.127815 41.5538 -20.538 10.6567 10.2448 36.576 5.17335 -7.62854 9.73918 -2.84453 -44.5133 3.6097 -3.54791 -27.0327 -9.5642 1.72344 -3.89275 33.1607 -16.074 5.82328 9.61819 -0.917488 0.815074 -8.91452 -2.18519 -2.64045 0.877876 -5.01366 -0.228583 11.5015 -11.3084 5.33499 -12.4837 0.0220732 0.0462048 0.000530889 0.662642 
12.8137 102.063 -2.41808 -3.83696 -0.346662 -93.2857 2.08828 -0.977223 3.42019 0.408321 11.665 17.8791 -5.23714 -9.8575 -0.0647937 -1.30296e-009 8.75239e-006 -1.47603e-008 0.505892 7.56474 0.0182884 -0.722312 -0.950474 0.240566 38.1869 1.83386 0.127815 41.5632 -20.5109 10.5874 10.3527 36.2377 5.08981 -7.66911 9.73616 -2.80748 -44.5737 3.61612 -3.55127 -27.0266 -9.51067 1.74563 -3.79332 33.2382 -16.1683 5.82328 9.61819 -0.917488 0.832677 -8.9943 -2.13706 -2.6159 0.98881 -5.01352 -0.211982 11.3939 -11.3634 5.3568 -12.4732 0.0220723 0.0462048 0.000530889 0.662642 
12.823 102.063 -2.42187 -3.83053 -0.347589 -93.2908 2.09747 -0.998421 3.43163 0.39869 11.6871 17.8576 -5.22289 -9.85662 -0.0647935 -1.30296e-009 8.75239e-006 -1.47603e-008 0.527674 7.50989 0.0130705 -0.761957 -0.910734 0.242676 38.2236 1.83386 0.127815 41.5476 -20.5968 10.5609 10.3761 36.3765 5.01364 -7.5878 9.72928 -2.65437 -44.6098 3.62059 -3.55466 -27.008 -9.49839 1.75074 -3.80453 33.2096 -16.1636 5.82328 9.61819 -0.917488 0.827608 -9.10375 -2.08119 -2.62086 0.99004 -5.01736 -0.201611 11.3692 -11.3311 5.35888 -12.4712 0.0220722 0.0462048 0.000530889 0.662642 
12.8368 102.063 -2.42495 -3.82643 -0.351146 -93.3242 2.09624 -0.997474 3.43072 0.393275 11.6698 17.8881 -5.2435 -9.85367 -0.064793 -1.30296e-009 8.75239e-006 -1.47603e-008 0.569245 7.46144 0.013134 -0.823288 -0.858204 0.258189 38.2552 1.83386 0.127815 41.5517 -20.7229 10.5702 10.3599 36.7203 4.94725 -7.6293 9.71489 -2.42013 -44.6185 3.62346 -3.55795 -26.9892 -9.50467 1.73615 -3.87161 33.1234 -16.1099 5.82328 9.61819 -0.917488 0.795468 -9.20781 -2.07871 -2.63681 0.963194 -5.03876 -0.188121 11.3899 -11.2683 5.34104 -12.4733 0.0220723 0.0462048 0.000530889 0.662642 
12.8526 102.063 -2.42653 -3.84773 -0.351907 -93.3436 2.09318 -0.973245 3.42489 0.400789 11.6547 17.9102 -5.28171 -9.85692 -0.0647936 -1.30296e-009 8.75239e-006 -1.47603e-008 0.569027 7.44677 0.0156375 -0.832299 -0.800249 0.261998 38.2615 1.83386 0.127815 41.5742 -20.792 10.5811 10.3556 36.9122 4.90355 -7.79184 9.70051 -2.24492 -44.6244 3.62791 -3.56136 -26.9861 -9.52014 1.71582 -3.90049 33.0707 -16.0886 5.82328 9.61819 -0.917488 0.778703 -9.30469 -2.10894 -2.64885 0.967137 -5.06558 -0.170661 11.4045 -11.2319 5.30933 -12.4772 0.0220727 0.0462048 0.000530889 0.662642 
12.8721 102.063 -2.42498 -3.86334 -0.35556 -93.3593 2.08516 -0.975845 3.41592 0.409595 11.6748 17.9285 -5.29119 -9.87451 -0.0647971 -1.30296e-009 8.75239e-006 -1.47603e-008 0.52559 7.41436 0.0222172 -0.78961 -0.712883 0.260865 38.2458 1.83386 0.127815 41.6026 -20.8214 10.6151 10.3767 36.931 4.85955 -7.89564 9.69651 -2.22517 -44.6564 3.63209 -3.56611 -26.9842 -9.55476 1.68488 -3.88791 33.0663 -16.0996 5.82328 9.61819 -0.917488 0.789563 -9.43083 -2.09711 -2.66069 0.95499 -5.08216 -0.160838 11.4349 -11.2091 5.2886 -12.4858 0.0220734 0.0462048 0.000530889 0.662642 
